<svg width="120" height="123" viewBox="0 0 120 123" fill="none" xmlns="http://www.w3.org/2000/svg">
<path d="M60.0025 90.7572C58.0316 90.7572 56.4285 92.9462 56.4285 95.6362C56.4285 98.3257 58.0316 100.515 60.0025 100.515C61.9733 100.515 63.5715 98.3257 63.5715 95.6362C63.5715 92.9462 61.9733 90.7572 60.0025 90.7572ZM60.0025 101.401C57.5414 101.401 55.546 98.8145 55.546 95.6362C55.546 92.4579 57.5414 89.8718 60.0025 89.8718C62.4587 89.8718 64.4589 92.4579 64.4589 95.6362C64.4589 98.8145 62.4587 101.401 60.0025 101.401Z" fill="#EEEEEE"/>
<path d="M59.9044 99.5823C59.7279 99.5823 59.5661 99.4783 59.4926 99.3063C59.4632 99.2327 58.7719 97.4845 59.6299 95.4631C60.3309 93.8095 59.5269 92.3662 59.5171 92.352C59.3994 92.1392 59.473 91.8691 59.6838 91.7475C59.8946 91.6269 60.1692 91.7009 60.2868 91.9132C60.3309 91.9877 61.3164 93.7561 60.4437 95.8093C59.7279 97.4953 60.3064 98.9582 60.3113 98.9729C60.4045 99.1994 60.2966 99.4577 60.0711 99.5499C60.0172 99.572 59.9584 99.5823 59.9044 99.5823Z" fill="#EEEEEE"/>
<path d="M59.174 34.0217C59.1004 34.0217 59.022 33.9933 58.9632 33.9354L58.0366 33.0044C57.9189 32.8892 57.9189 32.7024 58.0366 32.5872C58.1493 32.472 58.3356 32.472 58.4533 32.5872L59.3799 33.5182C59.4976 33.633 59.4976 33.8202 59.3799 33.9354C59.326 33.9933 59.2475 34.0217 59.174 34.0217Z" fill="#EEEEEE"/>
<path d="M60.6055 33.8071C60.532 33.8071 60.4535 33.7782 60.3996 33.7209L59.4681 32.7933C59.3554 32.6776 59.3554 32.4908 59.4681 32.3756C59.5858 32.2604 59.7721 32.2604 59.8848 32.3756L60.8163 33.3036C60.9291 33.4189 60.9291 33.6056 60.8163 33.7209C60.7575 33.7782 60.6791 33.8071 60.6055 33.8071Z" fill="#EEEEEE"/>
<path d="M62.1988 33.6797C62.1204 33.6797 62.0468 33.6513 61.988 33.5934L60.8261 32.429C60.7084 32.3138 60.7084 32.127 60.8261 32.0118C60.9388 31.8961 61.1251 31.8961 61.2428 32.0118L62.4047 33.1762C62.5224 33.2914 62.5224 33.4782 62.4047 33.5934C62.3459 33.6513 62.2723 33.6797 62.1988 33.6797Z" fill="#EEEEEE"/>
<path d="M63.4539 32.9875C63.3803 32.9875 63.3068 32.9586 63.248 32.9013L62.0665 31.7217C61.9537 31.607 61.9537 31.4197 62.0665 31.3045C62.1841 31.1893 62.3704 31.1893 62.4832 31.3045L63.6647 32.4841C63.7824 32.5993 63.7824 32.7861 63.6647 32.9013C63.6059 32.9586 63.5323 32.9875 63.4539 32.9875Z" fill="#EEEEEE"/>
<path d="M64.6354 32.0125C64.5619 32.0125 64.4834 31.9835 64.4246 31.9262L63.248 30.7471C63.1303 30.6314 63.1303 30.4451 63.248 30.3294C63.3608 30.2142 63.5471 30.2142 63.6647 30.3294L64.8413 31.5085C64.959 31.6242 64.959 31.811 64.8413 31.9262C64.7874 31.9835 64.709 32.0125 64.6354 32.0125Z" fill="#EEEEEE"/>
<path d="M65.5522 30.8579C65.4786 30.8579 65.4002 30.8295 65.3463 30.7716L64.1647 29.5921C64.052 29.4769 64.052 29.2901 64.1647 29.1749C64.2824 29.0596 64.4687 29.0596 64.5814 29.1749L65.763 30.3544C65.8757 30.4691 65.8757 30.6564 65.763 30.7716C65.7042 30.8295 65.6306 30.8579 65.5522 30.8579Z" fill="#EEEEEE"/>
<path d="M66.3856 29.7039C66.3072 29.7039 66.2336 29.6744 66.1748 29.6171L64.9982 28.438C64.8805 28.3223 64.8805 28.136 64.9982 28.0203C65.1109 27.9051 65.2972 27.9051 65.4149 28.0203L66.5915 29.1999C66.7092 29.3151 66.7092 29.5019 66.5915 29.6171C66.5327 29.6744 66.4592 29.7039 66.3856 29.7039Z" fill="#EEEEEE"/>
<path d="M66.9739 28.2849C66.9004 28.2849 66.8219 28.2565 66.7631 28.1991L65.5865 27.0196C65.4688 26.9043 65.4688 26.7176 65.5865 26.6023C65.6992 26.4866 65.8855 26.4866 66.0032 26.6023L67.1847 27.7814C67.2975 27.8966 67.2975 28.0834 67.1847 28.1991C67.1259 28.2565 67.0475 28.2849 66.9739 28.2849" fill="#EEEEEE"/>
<path d="M67.2779 26.7244C67.2043 26.7244 67.1259 26.6949 67.072 26.6376L66.1111 25.6791C65.9983 25.5639 65.9983 25.3771 66.1111 25.2614C66.2287 25.1462 66.415 25.1462 66.5278 25.2614L67.4887 26.2199C67.6015 26.3356 67.6015 26.5224 67.4887 26.6376C67.4299 26.6949 67.3563 26.7244 67.2779 26.7244Z" fill="#EEEEEE"/>
<path d="M67.7584 25.512C67.6848 25.512 67.6063 25.483 67.5475 25.4252L66.5915 24.4672C66.4739 24.352 66.4739 24.1652 66.5915 24.05C66.7043 23.9343 66.8955 23.9343 67.0082 24.05L67.9642 25.008C68.0819 25.1232 68.0819 25.31 67.9642 25.4252C67.9103 25.483 67.8319 25.512 67.7584 25.512Z" fill="#EEEEEE"/>
<path d="M52.9035 23.7217L53.2369 27.2334C53.5556 30.599 56.3451 33.1366 59.7279 33.1366H60.2524C63.6352 33.1366 66.4198 30.599 66.7385 27.2334L67.0719 23.7217H52.9035ZM60.2524 34.3176H59.7279C55.7323 34.3176 52.4378 31.3202 52.0652 27.3442L51.6681 23.1868C51.6534 23.0211 51.7073 22.8564 51.82 22.7339C51.9328 22.6108 52.0897 22.5407 52.2564 22.5407H67.724C67.8906 22.5407 68.0475 22.6108 68.1603 22.7339C68.2681 22.8564 68.3269 23.0211 68.3073 23.1868L67.9151 27.3442C67.5376 31.3202 64.248 34.3176 60.2524 34.3176Z" fill="#EEEEEE"/>
<path d="M67.4494 29.9739H67.0817C66.7533 29.9739 66.4886 29.7096 66.4886 29.3836C66.4886 29.0571 66.7533 28.7929 67.0817 28.7929H67.4494C68.1995 28.7929 68.832 28.0991 68.93 27.1789L69.0232 26.3176C69.0379 26.1317 68.9889 25.9499 68.881 25.8297C68.8369 25.7802 68.7634 25.7214 68.6653 25.7214H67.7044C67.3808 25.7214 67.1161 25.4571 67.1161 25.1311C67.1161 24.8051 67.3808 24.5409 67.7044 24.5409H68.6653C69.082 24.5409 69.4693 24.7183 69.7586 25.0399C70.0919 25.4096 70.2488 25.9204 70.1949 26.4411L70.1018 27.303C69.9449 28.8257 68.8025 29.9739 67.4494 29.9739" fill="#EEEEEE"/>
<path d="M81.2208 6.33189C81.3041 6.10147 81.1816 5.84753 80.956 5.76418C80.7207 5.68231 80.4707 5.7985 80.3874 6.02892L76.6075 16.4091C76.8869 16.5116 77.1615 16.6219 77.436 16.7288L81.2208 6.33189Z" fill="#EEEEEE"/>
<path d="M49.8787 3.35942C49.8345 3.1187 49.6041 2.95985 49.3639 3.00054C49.1237 3.04271 48.9619 3.27312 49.006 3.51335L50.8984 14.2573C51.1876 14.2049 51.4769 14.1495 51.771 14.1019L49.8787 3.35942Z" fill="#EEEEEE"/>
<path d="M45.8145 8.66744C45.7507 8.43065 45.5056 8.29092 45.2703 8.35416C45.035 8.4179 44.8928 8.66058 44.9565 8.89639L46.6528 15.2222C46.9372 15.1442 47.2166 15.0584 47.5058 14.9849L45.8145 8.66744Z" fill="#EEEEEE"/>
<path d="M56.0755 13.391C56.0559 13.1474 55.8402 12.966 55.595 12.9885C55.3548 13.0101 55.1734 13.2248 55.193 13.4685L55.2127 13.6548C55.5019 13.6273 55.801 13.6107 56.0951 13.5881L56.0755 13.391Z" fill="#EEEEEE"/>
<path d="M39.6177 6.02868C39.5343 5.79826 39.2794 5.68256 39.0489 5.76394C38.8185 5.84729 38.7009 6.10123 38.7842 6.33165L42.5004 16.5457C42.7798 16.4432 43.0592 16.351 43.3387 16.2535L39.6177 6.02868Z" fill="#EEEEEE"/>
<path d="M36.5339 11.9615C36.4309 11.7404 36.1711 11.6438 35.9456 11.7478C35.725 11.8507 35.6318 12.1145 35.7348 12.3361L38.4851 18.2383C38.7498 18.1123 39.0244 17.9946 39.294 17.8735L36.5339 11.9615" fill="#EEEEEE"/>
<path d="M64.3609 13.5288C64.2579 13.519 64.1648 13.5518 64.0863 13.6028C64.2677 13.6185 64.4442 13.6406 64.6256 13.6582C64.557 13.5886 64.4638 13.5376 64.3609 13.5288" fill="#EEEEEE"/>
<path d="M75.0435 8.89619C75.1073 8.66038 74.97 8.4177 74.7347 8.35397C74.4945 8.28974 74.2542 8.43193 74.1905 8.66725L72.4648 15.0974C72.7541 15.1749 73.0384 15.2494 73.3228 15.3313L75.0435 8.89619Z" fill="#EEEEEE"/>
<path d="M84.2702 12.3357C84.3731 12.1141 84.2751 11.8503 84.0544 11.7474C83.8338 11.6439 83.5691 11.7395 83.4661 11.9611L80.6128 18.0839C80.8776 18.2089 81.1473 18.3325 81.412 18.4619L84.2702 12.3357" fill="#EEEEEE"/>
<path d="M70.9989 3.51339C71.043 3.27316 70.8812 3.04274 70.641 3.00058C70.4008 2.95989 70.1704 3.11874 70.1262 3.35945L68.2241 14.15C68.5133 14.2015 68.8074 14.2544 69.0967 14.3108L70.9989 3.51339Z" fill="#EEEEEE"/>
<path d="M13.6978 23.8984C13.5115 23.7411 13.2272 23.7656 13.0703 23.9524C12.9134 24.1401 12.9379 24.4196 13.1291 24.5765L21.3458 31.4734C21.537 31.2474 21.7331 31.0272 21.9243 30.8047L13.6978 23.8984" fill="#EEEEEE"/>
<path d="M9.00603 39.0633C8.78541 38.9599 8.52067 39.0559 8.41772 39.277C8.31476 39.4991 8.40793 39.7624 8.63345 39.8653L12.3398 41.594H14.4332L9.00603 39.0633" fill="#EEEEEE"/>
<path d="M29.9743 10.4396C29.8517 10.2269 29.5821 10.1553 29.3713 10.2773C29.1605 10.3999 29.0869 10.6705 29.2094 10.8818L34.6317 20.2747C34.8866 20.1261 35.1416 19.9776 35.4014 19.8334L29.9743 10.4396" fill="#EEEEEE"/>
<path d="M7.54998 32.5382C7.33917 32.4156 7.06954 32.4887 6.94697 32.7C6.82441 32.9118 6.89794 33.1829 7.10875 33.3049L16.3354 38.6326C16.4825 38.3767 16.6246 38.1173 16.7766 37.8648L7.54998 32.5382" fill="#EEEEEE"/>
<path d="M90.7955 10.8818C90.918 10.6705 90.8445 10.3999 90.6337 10.2773C90.418 10.1548 90.1483 10.2278 90.0258 10.4396L84.4613 20.0776C84.7212 20.2241 84.9761 20.3737 85.2262 20.5237L90.7955 10.8818" fill="#EEEEEE"/>
<path d="M27.9741 16.8169C27.8319 16.6159 27.5573 16.5674 27.3563 16.7076C27.1553 16.8478 27.1063 17.1243 27.2485 17.3248L30.9646 22.6333C31.2049 22.4627 31.4402 22.2862 31.6853 22.12L27.9741 16.8169" fill="#EEEEEE"/>
<path d="M21.2477 16.4561C21.0908 16.2693 20.8114 16.2443 20.6251 16.4022C20.4339 16.559 20.4094 16.839 20.5711 17.0258L27.5083 25.2969C27.7338 25.1067 27.9593 24.9155 28.1897 24.7292L21.2477 16.4561" fill="#EEEEEE"/>
<path d="M99.4338 17.0256C99.5907 16.8388 99.5662 16.5589 99.3799 16.402C99.1936 16.2451 98.9141 16.2686 98.7573 16.4559L91.6191 24.9638C91.8495 25.1496 92.0751 25.3364 92.3006 25.5247L99.4338 17.0256" fill="#EEEEEE"/>
<path d="M60.4437 13.4311V13.4223C60.4437 13.1777 60.2476 12.9796 60.0025 12.9796C59.7573 12.9796 59.5563 13.1777 59.5563 13.4223V13.4331C59.7083 13.4321 59.8505 13.4223 60.0025 13.4223C60.1495 13.4223 60.2966 13.4302 60.4437 13.4311Z" fill="#EEEEEE"/>
<path d="M20.3799 23.0852C20.2084 22.9121 19.9289 22.9121 19.7573 23.0852C19.5808 23.2577 19.5808 23.5382 19.7573 23.7112L24.2922 28.2461C24.4981 28.0368 24.7187 27.8377 24.9295 27.6323L20.3799 23.0852Z" fill="#EEEEEE"/>
<path d="M108.41 41.2066L108.42 41.2424L111.372 39.8653C111.592 39.7623 111.69 39.4991 111.587 39.277C111.484 39.0564 111.22 38.9583 110.999 39.0632L106.361 41.2258C107.278 41.1743 108.366 41.0939 108.41 41.2066Z" fill="#EEEEEE"/>
<path d="M19.7573 101.18C19.5808 101.353 19.5808 101.633 19.7573 101.806C19.8407 101.892 19.9534 101.936 20.0662 101.936C20.1838 101.936 20.2966 101.892 20.3799 101.806L24.3952 97.7934C24.1844 97.585 23.9833 97.3668 23.7823 97.1551L19.7573 101.18" fill="#EEEEEE"/>
<path d="M99.62 101.806C99.7083 101.892 99.8211 101.936 99.9338 101.936C100.047 101.936 100.159 101.892 100.248 101.806C100.419 101.633 100.419 101.353 100.248 101.18L96.2226 97.1546C96.0167 97.3664 95.8157 97.585 95.6098 97.7934L99.62 101.806" fill="#EEEEEE"/>
<path d="M59.5563 112.503V122.379C59.5563 122.624 59.7573 122.822 60.0025 122.822C60.2476 122.822 60.4437 122.624 60.4437 122.379V112.503C60.2966 112.504 60.1495 112.514 60.0025 112.514C59.8505 112.514 59.7083 112.504 59.5563 112.503Z" fill="#EEEEEE"/>
<path d="M106.876 24.5767C107.062 24.4198 107.087 24.1404 106.93 23.9526C106.773 23.7653 106.493 23.7413 106.307 23.8987L97.9287 30.9285C98.1297 31.1486 98.3209 31.3717 98.5121 31.5938L106.876 24.5767Z" fill="#EEEEEE"/>
<path d="M100.248 23.7115C100.419 23.5384 100.419 23.258 100.248 23.0854C100.076 22.9123 99.7966 22.9123 99.6201 23.0854L94.8891 27.8193C95.1048 28.0223 95.3156 28.2257 95.5264 28.4316L100.248 23.7115" fill="#EEEEEE"/>
<path d="M106.518 31.3018C106.714 31.1611 106.763 30.885 106.626 30.6845C106.484 30.4855 106.209 30.436 106.008 30.5762L100.708 34.2879C100.885 34.5242 101.066 34.7595 101.238 34.9973L106.518 31.3018" fill="#EEEEEE"/>
<path d="M112.891 33.3049C113.107 33.1829 113.176 32.9118 113.053 32.7C112.935 32.4887 112.666 32.4151 112.45 32.5382L103.189 37.8849C103.346 38.1359 103.508 38.3864 103.655 38.6379L112.891 33.3049" fill="#EEEEEE"/>
<path d="M92.7565 17.3245C92.8938 17.124 92.8496 16.8475 92.6486 16.7073C92.4476 16.5661 92.1682 16.6156 92.0309 16.8166L88.1383 22.3776C88.3785 22.5448 88.6237 22.7134 88.8639 22.8835L92.7565 17.3245" fill="#EEEEEE"/>
<path d="M13.9968 30.5764C13.7958 30.4362 13.5212 30.4847 13.3791 30.6847C13.2369 30.8853 13.2859 31.1613 13.4869 31.302L18.6885 34.9446C18.8601 34.7029 19.0268 34.4617 19.2033 34.2234L13.9968 30.5764" fill="#EEEEEE"/>
<path d="M74.1904 116.224C74.2444 116.423 74.4209 116.552 74.617 116.552L74.7347 116.538C74.97 116.474 75.1072 116.231 75.0435 115.995L73.612 110.64C73.3276 110.72 73.0433 110.808 72.7589 110.883L74.1904 116.224" fill="#EEEEEE"/>
<path d="M80.3874 118.863C80.4511 119.043 80.6227 119.154 80.8041 119.154C80.8531 119.154 80.9021 119.145 80.956 119.128C81.1815 119.044 81.3041 118.79 81.2208 118.56L77.8331 109.26C77.5586 109.364 77.284 109.469 77.0046 109.568L80.3874 118.863Z" fill="#EEEEEE"/>
<path d="M83.4662 112.931C83.5446 113.091 83.7015 113.186 83.8682 113.186C83.9319 113.186 83.9956 113.173 84.0545 113.145C84.2751 113.041 84.3732 112.778 84.2702 112.556L81.917 107.514C81.6522 107.642 81.3826 107.758 81.1129 107.882L83.4662 112.931" fill="#EEEEEE"/>
<path d="M90.0258 114.452C90.1091 114.594 90.2562 114.674 90.4131 114.674C90.4866 114.674 90.5602 114.655 90.6337 114.614C90.8445 114.492 90.918 114.221 90.7955 114.01L85.8243 105.401C85.5694 105.553 85.3144 105.696 85.0546 105.842L90.0258 114.452" fill="#EEEEEE"/>
<path d="M92.0309 108.075C92.1143 108.198 92.2564 108.264 92.3937 108.264C92.482 108.264 92.5702 108.237 92.6486 108.184C92.8496 108.044 92.8937 107.767 92.7565 107.567L89.5257 102.956C89.2904 103.128 89.0502 103.3 88.805 103.469L92.0309 108.075Z" fill="#EEEEEE"/>
<path d="M54.6391 117.78C54.6195 118.024 54.796 118.239 55.0411 118.26L55.0803 118.262C55.3058 118.262 55.5019 118.088 55.5215 117.858L56.002 112.341C55.7078 112.318 55.4137 112.302 55.1195 112.274L54.6391 117.78" fill="#EEEEEE"/>
<path d="M49.006 121.379C48.9619 121.619 49.1237 121.849 49.3639 121.892L49.4423 121.898C49.6531 121.898 49.8394 121.748 49.8787 121.532L51.5896 111.803C51.3004 111.754 51.0112 111.701 50.7219 111.647L49.006 121.379" fill="#EEEEEE"/>
<path d="M64.4834 117.858C64.503 118.088 64.6942 118.262 64.9246 118.262L64.9639 118.26C65.2041 118.239 65.3855 118.024 65.3658 117.78L64.8805 112.274C64.5913 112.302 64.2922 112.318 63.9981 112.341L64.4834 117.858" fill="#EEEEEE"/>
<path d="M44.9565 115.995C44.8928 116.231 45.035 116.474 45.2703 116.538L45.383 116.552C45.5791 116.552 45.7605 116.423 45.8145 116.224L47.246 110.883C46.9568 110.807 46.6773 110.72 46.3929 110.64L44.9565 115.995Z" fill="#EEEEEE"/>
<path d="M70.1263 121.532C70.1655 121.748 70.3517 121.898 70.5626 121.898L70.641 121.892C70.8813 121.849 71.043 121.619 70.9989 121.379L69.283 111.647C68.9938 111.701 68.7045 111.754 68.4104 111.803L70.1263 121.532Z" fill="#EEEEEE"/>
<path d="M98.7572 108.435C98.8455 108.539 98.968 108.593 99.0955 108.593C99.1935 108.593 99.2965 108.559 99.3798 108.489C99.5661 108.333 99.5906 108.053 99.4338 107.865L93.0016 100.2C92.781 100.393 92.5603 100.59 92.3299 100.779L98.7572 108.435" fill="#EEEEEE"/>
<path d="M112.45 92.353C112.519 92.3932 112.597 92.4124 112.671 92.4124C112.823 92.4124 112.975 92.3329 113.053 92.1912C113.176 91.9795 113.107 91.7083 112.891 91.5863L104.116 86.519C103.974 86.7773 103.822 87.0313 103.674 87.2867L112.45 92.353" fill="#EEEEEE"/>
<path d="M106.307 100.993C106.39 101.063 106.489 101.097 106.591 101.097C106.719 101.097 106.842 101.043 106.93 100.939C107.087 100.752 107.062 100.472 106.876 100.315L99.1641 93.8448C98.9778 94.0742 98.7915 94.3007 98.6003 94.5263L106.307 100.993Z" fill="#EEEEEE"/>
<path d="M106.008 94.3151C106.087 94.369 106.175 94.395 106.263 94.395C106.4 94.395 106.538 94.3293 106.626 94.2058C106.763 94.0058 106.714 93.7297 106.518 93.5895L101.811 90.294C101.645 90.5387 101.463 90.774 101.297 91.0157L106.008 94.3151" fill="#EEEEEE"/>
<path d="M7.10875 91.5863C6.89794 91.7083 6.82441 91.9795 6.94697 92.1912C7.03032 92.3329 7.17738 92.4124 7.32936 92.4124C7.40781 92.4124 7.48134 92.3932 7.54998 92.353L16.3256 87.2867C16.1785 87.0313 16.0314 86.7773 15.8843 86.519L7.10875 91.5863" fill="#EEEEEE"/>
<path d="M38.7842 118.56C38.7009 118.79 38.8185 119.044 39.0489 119.128C39.098 119.145 39.1519 119.154 39.2009 119.154C39.3823 119.154 39.549 119.043 39.6177 118.863L43.0004 109.568C42.721 109.469 42.4464 109.364 42.167 109.26L38.7842 118.56Z" fill="#EEEEEE"/>
<path d="M27.2485 107.567C27.1063 107.767 27.1553 108.044 27.3563 108.184C27.4348 108.237 27.523 108.264 27.6113 108.264C27.7485 108.264 27.8858 108.198 27.9741 108.075L31.195 103.469C30.9548 103.3 30.7146 103.128 30.4744 102.956L27.2485 107.567" fill="#EEEEEE"/>
<path d="M20.5711 107.865C20.4094 108.053 20.4339 108.333 20.6251 108.489C20.7084 108.559 20.8064 108.593 20.9094 108.593C21.032 108.593 21.1594 108.539 21.2477 108.435L27.67 100.78C27.4445 100.591 27.2239 100.393 27.0033 100.2L20.5711 107.865" fill="#EEEEEE"/>
<path d="M35.7348 112.556C35.6318 112.778 35.725 113.041 35.9456 113.145C36.0093 113.173 36.073 113.186 36.1319 113.186C36.2985 113.186 36.4603 113.091 36.5339 112.931L38.892 107.882C38.6224 107.758 38.3478 107.642 38.0831 107.514L35.7348 112.556Z" fill="#EEEEEE"/>
<path d="M13.4869 93.5895C13.2859 93.7297 13.2369 94.0058 13.3791 94.2058C13.4624 94.3293 13.5997 94.395 13.7418 94.395C13.8301 94.395 13.9183 94.369 13.9968 94.3151L18.7082 91.0152C18.5366 90.774 18.3601 90.5387 18.1934 90.294L13.4869 93.5895" fill="#EEEEEE"/>
<path d="M13.1291 100.315C12.9379 100.472 12.9134 100.752 13.0703 100.939C13.1585 101.043 13.286 101.097 13.4135 101.097C13.5115 101.097 13.6145 101.063 13.6978 100.993L21.4047 94.5263C21.2135 94.3012 21.0222 94.0742 20.8359 93.8453L13.1291 100.315" fill="#EEEEEE"/>
<path d="M29.2094 114.01C29.0869 114.221 29.1605 114.492 29.3713 114.614C29.4399 114.655 29.5183 114.674 29.5919 114.674C29.7439 114.674 29.8909 114.594 29.9743 114.452L34.9454 105.842C34.6905 105.696 34.4307 105.553 34.1807 105.401L29.2094 114.01" fill="#EEEEEE"/>
<path d="M57.6346 9.81396C57.5267 9.81396 57.4188 9.77377 57.3306 9.69287C56.7325 9.12761 56.4383 8.22554 56.5217 7.21855C56.5805 6.53562 56.7913 5.89485 56.9923 5.27566L57.1149 4.90405C57.257 4.45939 57.3845 3.98433 57.3943 3.52104C57.409 3.05677 57.2865 2.64396 57.0609 2.35814C56.909 2.16596 56.9384 1.88799 57.1296 1.73552C57.3208 1.58256 57.6002 1.6159 57.7522 1.80661C58.1101 2.2547 58.2964 2.86998 58.2817 3.54065C58.267 4.11523 58.1199 4.66432 57.9581 5.17124L57.8355 5.55168C57.6394 6.14881 57.4532 6.7131 57.4041 7.29405C57.3404 8.01914 57.5414 8.67511 57.9385 9.04868C58.115 9.21684 58.1248 9.49676 57.9581 9.67424C57.8699 9.7669 57.7522 9.81396 57.6346 9.81396" fill="#EEEEEE"/>
<path d="M60.3505 11.4536C60.2427 11.4536 60.1299 11.4139 60.0466 11.333C59.218 10.5545 58.8161 9.30581 58.9337 7.90711C59.0171 6.94032 59.3161 6.02452 59.6053 5.13814L59.7819 4.59444C59.9927 3.93505 60.1888 3.22859 60.2035 2.5334C60.2182 1.81371 60.0319 1.17 59.6691 0.718964C59.5171 0.527274 59.5515 0.248811 59.7427 0.0963413C59.9339 -0.0566186 60.2133 -0.0232836 60.3652 0.167426C60.8506 0.780246 61.1104 1.62742 61.0859 2.55302C61.0712 3.35949 60.8555 4.13899 60.6251 4.86163L60.4486 5.41415C60.1593 6.29073 59.8897 7.11878 59.8162 7.98212C59.7181 9.1102 60.027 10.0971 60.6545 10.6888C60.831 10.8565 60.8408 11.1364 60.6741 11.3144C60.5859 11.407 60.4682 11.4536 60.3505 11.4536" fill="#EEEEEE"/>
<path d="M62.846 9.81396C62.7381 9.81396 62.6302 9.77377 62.5469 9.69336C61.9439 9.1281 61.6497 8.22603 61.7331 7.21855C61.7919 6.53562 62.0027 5.89485 62.2037 5.27566L62.3263 4.90405C62.4685 4.45939 62.596 3.98433 62.6107 3.52104C62.6205 3.05677 62.4979 2.64396 62.2724 2.35814C62.1204 2.16596 62.1498 1.88799 62.341 1.73552C62.5371 1.58256 62.8165 1.6159 62.9636 1.80661C63.3215 2.2547 63.5078 2.86998 63.4931 3.54065C63.4833 4.11523 63.3313 4.66432 63.1695 5.17124L63.047 5.55168C62.8509 6.14881 62.6646 6.7131 62.6155 7.29405C62.5567 8.01914 62.7528 8.67511 63.1499 9.04868C63.3313 9.21635 63.3362 9.49627 63.1695 9.67424C63.0813 9.7669 62.9636 9.81396 62.846 9.81396" fill="#EEEEEE"/>
<path d="M27.876 54.9423V57.6902H24.6501V54.7678C24.6501 52.0199 23.5568 50.3629 21.0712 50.3629C18.6297 50.3629 17.4973 52.0199 17.4973 54.7678V70.9061C17.4973 73.6535 18.6297 75.311 21.0712 75.311C23.5568 75.311 24.6501 73.6535 24.6501 70.9061V66.9365H27.876V70.731C27.876 75.3546 25.6943 78.4084 20.983 78.4084C16.3206 78.4084 14.139 75.3546 14.139 70.731V54.9423C14.139 50.3187 16.3206 47.2654 20.983 47.2654C25.6943 47.2654 27.876 50.3187 27.876 54.9423Z" fill="#EEEEEE"/>
<path d="M34.0728 70.9061C34.0728 73.6971 35.2494 75.311 37.6909 75.311C40.1765 75.311 41.309 73.6971 41.309 70.9061V54.7678C41.309 52.0199 40.1765 50.3629 37.6909 50.3629C35.2494 50.3629 34.0728 52.0199 34.0728 54.7678V70.9061ZM30.7097 54.9423C30.7097 50.2751 33.0236 47.2654 37.6909 47.2654C42.4022 47.2654 44.7114 50.2751 44.7114 54.9423V70.731C44.7114 75.3546 42.4022 78.4084 37.6909 78.4084C33.0236 78.4084 30.7097 75.3546 30.7097 70.731V54.9423Z" fill="#EEEEEE"/>
<path d="M58.365 61.7902V64.8867H51.3445V78.1025H47.9422V47.5709H60.0662V50.6678H51.3445V61.7902H58.365" fill="#EEEEEE"/>
<path d="M73.1952 61.7902V64.8867H66.1748V78.1025H62.7724V47.5709H74.8964V50.6678H66.1748V61.7902H73.1952" fill="#EEEEEE"/>
<path d="M88.4618 61.0916V64.1454H81.0001V75.0056H90.163V78.1025H77.6027V47.5709H90.163V50.6678H81.0001V61.0916H88.4618" fill="#EEEEEE"/>
<path d="M104.165 61.0916V64.1454H96.703V75.0056H105.866V78.1025H93.3007V47.5709H105.866V50.6678H96.703V61.0916H104.165" fill="#EEEEEE"/>
<path d="M117.951 85.5303H2.05418C1.69629 85.5303 1.40703 85.242 1.40703 84.8866V84.6238C1.40703 84.2688 1.69629 83.9806 2.05418 83.9806H117.951C118.304 83.9806 118.593 84.2688 118.593 84.6238V84.8866C118.593 85.242 118.304 85.5303 117.951 85.5303Z" fill="#EEEEEE"/>
<path d="M117.951 41.9817H2.05418C1.69629 41.9817 1.40703 41.6934 1.40703 41.338V41.0752C1.40703 40.7202 1.69629 40.432 2.05418 40.432H117.951C118.304 40.432 118.593 40.7202 118.593 41.0752V41.338C118.593 41.6934 118.304 41.9817 117.951 41.9817Z" fill="#EEEEEE"/>
<path d="M103.89 41.5378C95.3892 24.6505 78.3724 14.16 59.4779 14.16C40.5883 14.16 23.5666 24.6505 15.0656 41.5378L13.7468 40.8745C22.5028 23.4856 40.0245 12.6843 59.4779 12.6843C78.9313 12.6843 96.4579 23.4856 105.209 40.8745L103.89 41.5378Z" fill="#EEEEEE"/>
<path d="M59.4779 113.252C40.0245 113.252 22.4979 102.449 13.7468 85.0586L15.0656 84.3948C23.5666 101.284 40.5834 111.776 59.4779 111.776C78.3577 111.776 95.3745 101.295 103.88 84.4237L105.199 85.088C96.4383 102.46 78.9215 113.252 59.4779 113.252" fill="#EEEEEE"/>
<path d="M37.0242 29.1861V29.5008H36.2545V30.6201H37.2007V30.9392H35.9064V27.7923H37.2007V28.1124H36.2545V29.1861H37.0242" fill="#EEEEEE"/>
<path d="M38.1468 30.0043H38.8479L38.4949 28.1884L38.1468 30.0043ZM38.1027 30.3053L37.9801 30.9392H37.6566L38.2596 27.7923H38.7694L39.3675 30.9392H39.0195L38.8969 30.3053H38.1027" fill="#EEEEEE"/>
<path d="M41.2306 28.5476V28.6329H40.8972V28.53C40.8972 28.2466 40.7894 28.0799 40.5393 28.0799C40.2844 28.0799 40.1765 28.2466 40.1765 28.5255C40.1765 29.231 41.2355 29.2987 41.2355 30.1836C41.2355 30.6606 41.0051 30.9709 40.5246 30.9709C40.0442 30.9709 39.8187 30.6606 39.8187 30.1836V30.0042H40.1471V30.2017C40.1471 30.4856 40.2648 30.6513 40.5148 30.6513C40.7649 30.6513 40.8825 30.4856 40.8825 30.2017C40.8825 29.5007 39.8334 29.433 39.8334 28.5476C39.8334 28.0623 40.0589 27.7612 40.5295 27.7612C41.0051 27.7612 41.2306 28.0716 41.2306 28.5476" fill="#EEEEEE"/>
<path d="M42.2209 30.9392V28.1124H41.6424V27.7923H43.1524V28.1124H42.5739V30.9392H42.2209Z" fill="#EEEEEE"/>
<path d="M78.9411 28.5571C78.9411 29.5057 77.8772 29.8469 77.8723 30.5705V30.6201H78.9067V30.9392H77.5242V30.6696C77.5242 29.6533 78.593 29.4557 78.593 28.5703C78.593 28.2467 78.4851 28.0761 78.2204 28.0761C77.9654 28.0761 77.8527 28.2605 77.8527 28.5389V28.8174H77.5242V28.5615C77.5242 28.08 77.7448 27.7614 78.2302 27.7614C78.7205 27.7614 78.9411 28.0761 78.9411 28.5571" fill="#EEEEEE"/>
<path d="M79.6274 30.1978C79.6274 30.4807 79.75 30.6513 80 30.6513C80.2598 30.6513 80.3726 30.4807 80.3726 30.1978V28.5344C80.3726 28.2466 80.2598 28.076 80 28.076C79.75 28.076 79.6274 28.2466 79.6274 28.5344V30.1978ZM79.2794 28.5525C79.2794 28.0716 79.5196 27.7612 80 27.7612C80.4854 27.7612 80.7256 28.0716 80.7256 28.5525V30.1753C80.7256 30.6562 80.4854 30.9709 80 30.9709C79.5196 30.9709 79.2794 30.6562 79.2794 30.1753V28.5525Z" fill="#EEEEEE"/>
<path d="M81.7453 28.3634C81.6277 28.4355 81.4757 28.4894 81.309 28.4982V28.2104C81.6473 28.1977 81.7649 28.0129 81.8483 27.7923H82.0885V30.9392H81.7453V28.3634Z" fill="#EEEEEE"/>
<path d="M82.9857 30.1978C82.9857 30.4807 83.1033 30.6513 83.3582 30.6513C83.6132 30.6513 83.7309 30.4807 83.7309 30.1978V28.5344C83.7309 28.2466 83.6132 28.076 83.3582 28.076C83.1033 28.076 82.9857 28.2466 82.9857 28.5344V30.1978ZM82.6376 28.5525C82.6376 28.0716 82.8778 27.7612 83.3582 27.7612C83.8436 27.7612 84.0789 28.0716 84.0789 28.5525V30.1753C84.0789 30.6562 83.8436 30.9709 83.3582 30.9709C82.8778 30.9709 82.6376 30.6562 82.6376 30.1753V28.5525Z" fill="#EEEEEE"/>
<path d="M50.5749 106.517C50.5504 106.642 50.5356 106.705 50.5111 106.83C50.2121 106.771 50.065 106.74 49.766 106.677C49.6532 107.209 49.5943 107.475 49.4816 108.008C49.3296 107.975 49.2561 107.959 49.109 107.926C49.3835 106.698 49.5208 106.084 49.7954 104.855C50.2905 104.966 50.5356 105.017 51.0308 105.114C51.0063 105.239 50.9965 105.302 50.972 105.427C50.6141 105.357 50.4327 105.32 50.0748 105.244C49.9768 105.692 49.9326 105.916 49.8346 106.364C50.1287 106.427 50.2758 106.458 50.5749 106.517" fill="#EEEEEE"/>
<path d="M51.8936 106.777C52.178 106.825 52.3643 106.763 52.4182 106.426C52.4378 106.308 52.4476 106.248 52.4623 106.129C52.5114 105.849 52.428 105.687 52.1682 105.643C52.0309 105.62 51.9623 105.608 51.825 105.584C51.7466 106.043 51.7024 106.272 51.624 106.731C51.7318 106.75 51.7858 106.76 51.8936 106.777ZM52.227 105.33C52.7221 105.412 52.8889 105.69 52.8202 106.152C52.8055 106.253 52.7957 106.304 52.781 106.405C52.732 106.747 52.5751 106.943 52.2809 106.983C52.5653 107.114 52.6437 107.361 52.5947 107.695C52.5653 107.889 52.5506 107.986 52.5211 108.179C52.4966 108.317 52.4819 108.447 52.531 108.563C52.379 108.54 52.3005 108.528 52.1534 108.505C52.124 108.409 52.1142 108.326 52.1486 108.118C52.178 107.922 52.1976 107.824 52.227 107.629C52.2809 107.279 52.129 107.141 51.825 107.09C51.7221 107.072 51.673 107.064 51.5701 107.046C51.4769 107.575 51.4328 107.84 51.3396 108.37C51.1877 108.344 51.1141 108.33 50.9671 108.303C51.1926 107.065 51.3053 106.446 51.5309 105.208C51.8103 105.258 51.9475 105.283 52.227 105.33" fill="#EEEEEE"/>
<path d="M54.4822 107.051C54.4675 107.176 54.4626 107.238 54.4479 107.363C54.1292 107.328 53.9674 107.308 53.6487 107.267C53.5899 107.711 53.5605 107.933 53.5066 108.377C53.9086 108.429 54.1047 108.453 54.5067 108.496C54.4969 108.623 54.4871 108.687 54.4724 108.813C53.9184 108.754 53.6439 108.72 53.0899 108.643C53.2615 107.396 53.3448 106.773 53.5164 105.526C54.0361 105.597 54.2959 105.629 54.8156 105.685C54.8009 105.813 54.7911 105.876 54.7813 106.003C54.3989 105.962 54.2077 105.939 53.8253 105.89C53.7713 106.316 53.7468 106.529 53.688 106.955C54.0067 106.996 54.1635 107.015 54.4822 107.051" fill="#EEEEEE"/>
<path d="M56.6785 106.606L56.6736 106.691C56.5363 106.682 56.4677 106.677 56.3304 106.667L56.3402 106.564C56.3598 106.282 56.2618 106.108 56.0117 106.088C55.7568 106.067 55.6343 106.223 55.6048 106.5C55.546 107.203 56.6344 107.355 56.5755 108.238C56.5461 108.714 56.2765 109.009 55.7617 108.968C55.247 108.926 55.0361 108.591 55.0803 108.117C55.0852 108.045 55.0901 108.009 55.0999 107.938C55.2372 107.951 55.3058 107.957 55.4431 107.97C55.4382 108.049 55.4332 108.088 55.4234 108.167C55.3989 108.45 55.5068 108.627 55.7764 108.649C56.0461 108.67 56.1834 108.513 56.203 108.231C56.2569 107.531 55.1685 107.371 55.2519 106.49C55.3009 106.006 55.5558 105.731 56.0264 105.769C56.502 105.808 56.7128 106.13 56.6785 106.606" fill="#EEEEEE"/>
<path d="M57.5414 107.631C57.512 108.197 57.5021 108.479 57.4727 109.045C57.3256 109.038 57.2472 109.034 57.0953 109.027C57.1639 107.77 57.1982 107.141 57.2668 105.884C57.409 105.892 57.4776 105.895 57.6198 105.902C57.5953 106.468 57.5806 106.751 57.5561 107.316C57.8747 107.331 58.0365 107.337 58.3601 107.347C58.3748 106.781 58.3846 106.497 58.3993 105.931C58.5415 105.936 58.6101 105.937 58.7523 105.94C58.7278 107.198 58.7131 107.827 58.6886 109.086C58.5366 109.083 58.4581 109.081 58.3062 109.077C58.3258 108.51 58.3307 108.228 58.3503 107.661C58.0267 107.652 57.8649 107.646 57.5414 107.631" fill="#EEEEEE"/>
<path d="M60.9242 107.418C61.2134 107.411 61.385 107.314 61.3703 106.973C61.3703 106.853 61.3654 106.793 61.3605 106.672C61.3507 106.389 61.2428 106.246 60.9781 106.252C60.8359 106.256 60.7673 106.258 60.63 106.261C60.6398 106.727 60.6447 106.959 60.6545 107.425C60.7624 107.422 60.8163 107.421 60.9242 107.418ZM60.9781 105.933C61.4732 105.92 61.6938 106.16 61.7134 106.627C61.7183 106.729 61.7233 106.78 61.7282 106.883C61.7429 107.229 61.6252 107.45 61.3458 107.545C61.6497 107.62 61.7723 107.848 61.787 108.185C61.7968 108.38 61.8017 108.478 61.8066 108.674C61.8164 108.814 61.8262 108.943 61.8949 109.049C61.738 109.055 61.6645 109.058 61.5076 109.064C61.4635 108.976 61.4389 108.896 61.434 108.684C61.4242 108.487 61.4242 108.388 61.4144 108.191C61.4046 107.836 61.2232 107.73 60.9193 107.738C60.8163 107.741 60.7623 107.742 60.6594 107.744C60.6692 108.281 60.6741 108.55 60.6839 109.088C60.5368 109.091 60.4584 109.092 60.3064 109.094C60.2917 107.835 60.2868 107.206 60.2721 105.947C60.5516 105.944 60.6937 105.941 60.9781 105.933" fill="#EEEEEE"/>
<path d="M62.7528 108.259C62.7724 108.546 62.9145 108.704 63.1842 108.685C63.4538 108.665 63.5666 108.489 63.5421 108.203C63.4931 107.539 63.4637 107.208 63.4097 106.545C63.3901 106.262 63.2577 106.102 62.9979 106.121C62.743 106.139 62.6302 106.316 62.6498 106.6C62.6891 107.263 62.7136 107.596 62.7528 108.259V108.259ZM62.2968 106.639C62.2674 106.158 62.4929 105.837 62.9734 105.802C63.4636 105.768 63.7284 106.053 63.7725 106.533C63.8264 107.181 63.8559 107.505 63.9147 108.153C63.9539 108.628 63.7284 108.966 63.2038 109.004C62.689 109.041 62.4145 108.739 62.3851 108.263C62.3508 107.613 62.3312 107.288 62.2968 106.639" fill="#EEEEEE"/>
<path d="M64.8953 107.88C65.1943 107.848 65.3414 107.83 65.6355 107.794C65.3953 107.091 65.2777 106.74 65.0521 106.035C64.9933 106.773 64.9639 107.142 64.8953 107.88V107.88ZM64.8806 108.185C64.8609 108.442 64.8462 108.571 64.8217 108.828C64.6844 108.843 64.6109 108.85 64.4737 108.864C64.6109 107.586 64.6697 106.947 64.7727 105.669C64.9737 105.646 65.0766 105.634 65.2776 105.609C65.6748 106.829 65.8807 107.436 66.3072 108.648C66.1552 108.669 66.0817 108.679 65.9346 108.698C65.8464 108.454 65.8072 108.332 65.7238 108.086C65.3855 108.129 65.2188 108.148 64.8806 108.185" fill="#EEEEEE"/>
<path d="M67.8662 105.982L67.8809 106.066C67.7485 106.09 67.6799 106.102 67.5475 106.125L67.5279 106.024C67.4789 105.744 67.3416 105.599 67.0916 105.64C66.8366 105.681 66.7582 105.863 66.7974 106.138C66.9053 106.835 68.0034 106.72 68.1603 107.592C68.2437 108.061 68.0574 108.412 67.5426 108.496C67.0278 108.579 66.7435 108.305 66.6748 107.834C66.665 107.762 66.6601 107.727 66.6503 107.656C66.7876 107.636 66.8562 107.625 66.9935 107.604C67.0033 107.682 67.0132 107.721 67.023 107.799C67.0671 108.08 67.2141 108.225 67.4838 108.182C67.7485 108.139 67.8417 107.953 67.7976 107.674C67.6799 106.982 66.5817 107.089 66.4494 106.213C66.3807 105.733 66.5621 105.404 67.0327 105.327C67.5034 105.25 67.7828 105.513 67.8662 105.982" fill="#EEEEEE"/>
<path d="M69.3418 108.135C69.1163 107.027 69.0035 106.473 68.7829 105.364C68.5525 105.411 68.4349 105.434 68.2044 105.477C68.1799 105.352 68.1652 105.289 68.1456 105.163C68.7437 105.05 69.0428 104.989 69.6409 104.855C69.6654 104.98 69.6801 105.042 69.7095 105.167C69.4791 105.218 69.3615 105.243 69.131 105.292C69.3664 106.399 69.4791 106.952 69.7144 108.059C69.5624 108.09 69.4889 108.106 69.3418 108.135" fill="#EEEEEE"/>
<path d="M120 62.5986L118.593 64.0071L117.186 62.5986L118.593 61.1901L120 62.5986Z" fill="#EEEEEE"/>
<path d="M2.81897 62.5986L1.40705 64.0071L0 62.5986L1.40705 61.1901L2.81897 62.5986Z" fill="#EEEEEE"/>
</svg>
